<svg id="Layer_3" enable-background="new 0 0 100 100" viewBox="0 0 100 100" xmlns="http://www.w3.org/2000/svg" width="300" height="300" version="1.1" xmlns:xlink="http://www.w3.org/1999/xlink" xmlns:svgjs="http://svgjs.dev/svgjs"><g width="100%" height="100%" transform="matrix(1,0,0,1,0,0)"><path d="m89.846 79.057c-.32-.304-.757-.488-1.194-.488h-1.752l-1.609-36.972c0-3.707-3.016-6.722-6.722-6.722h-3.361v-18.486c0-.929-.752-1.681-1.681-1.681h-36.571c-2.466-3.071-6.248-5.041-10.484-5.041-7.413 0-13.444 6.031-13.444 13.444 0 5.146 2.908 9.624 7.165 11.883-3.117.583-5.484 3.311-5.483 6.531l-1.611 37.044h-1.752c-.437 0-.874.184-1.193.488-.303.318-.487.756-.487 1.193v3.361c0 3.714 3.008 6.722 6.722 6.722h49.929c.941 0 1.681-.756 1.681-1.68s-.74-1.681-1.681-1.681h-49.929c-1.849 0-3.361-1.513-3.361-3.361v-1.681h1.681 70.583 1.681v1.681c0 1.848-1.513 3.361-3.361 3.361h-3.849c-.925 0-1.68.757-1.68 1.681s.756 1.68 1.68 1.68h3.849c3.714 0 6.722-3.008 6.722-6.722v-3.361c-.001-.437-.186-.875-.488-1.193zm-63.374-66.029c2.055 0 3.966.621 5.562 1.68.715.475 1.361 1.044 1.932 1.681.464.516.875 1.077 1.225 1.68.862 1.486 1.364 3.204 1.364 5.042 0 4.987-3.642 9.128-8.403 9.932-.548.092-1.107.151-1.68.151-.574 0-1.133-.059-1.681-.151-4.761-.804-8.403-4.945-8.403-9.932.001-5.56 4.524-10.083 10.084-10.083zm-1.681 41.725v-11.475h1.681 1.68v11.475c0 .927-.754 1.68-1.68 1.68s-1.681-.753-1.681-1.68zm-3.361-16.517h3.361v1.681h-1.68c-.928 0-1.681.751-1.681 1.68v13.156c0 2.19 1.406 4.053 3.361 4.748v14.027c0 .929.753 1.68 1.681 1.68s1.68-.751 1.68-1.68v-14.027c1.955-.695 3.362-2.558 3.362-4.748v-13.156c0-.929-.753-1.68-1.681-1.68h-1.681v-1.681-1.681-.108c1.729-.217 3.357-.761 4.819-1.572 4.137-2.295 6.945-6.707 6.945-11.764 0-1.783-.351-3.484-.985-5.042h32.915v16.806 1.68 1.681 35.292c0 .929.752 1.68 1.68 1.68s1.681-.751 1.681-1.68v-35.292h3.361c1.854 0 3.361 1.508 3.363 3.434l1.604 36.899h-67.071l1.606-36.972c-.001-1.853 1.507-3.361 3.36-3.361zm53.291 50.417c0 .924-.757 1.68-1.681 1.68-.925 0-1.68-.756-1.68-1.68s.756-1.681 1.68-1.681 1.681.757 1.681 1.681zm-23.041-65.542c0-.929.752-1.681 1.681-1.681h13.444c.928 0 1.681.752 1.681 1.681s-.752 1.681-1.681 1.681h-13.444c-.928 0-1.681-.752-1.681-1.681zm0 6.722c0-.924.756-1.68 1.681-1.68h13.444c.924 0 1.681.756 1.681 1.68s-.757 1.681-1.681 1.681h-13.444c-.925 0-1.681-.757-1.681-1.681zm0 6.722c0-.924.756-1.68 1.681-1.68h8.403c.924 0 1.68.757 1.68 1.68 0 .924-.756 1.681-1.68 1.681h-8.403c-.925 0-1.681-.757-1.681-1.681zm0 20.167c.924 0 1.681.757 1.681 1.681s-.757 1.68-1.681 1.68c-.925 0-1.68-.756-1.68-1.68s.756-1.681 1.68-1.681zm-16.805 1.681c0-.924.756-1.681 1.68-1.681h8.403c.924 0 1.681.757 1.681 1.681s-.757 1.68-1.681 1.68h-8.403c-.924 0-1.68-.756-1.68-1.68zm33.611 0c0 .924-.757 1.68-1.681 1.68h-8.403c-.925 0-1.68-.756-1.68-1.68s.756-1.681 1.68-1.681h8.403c.924 0 1.681.757 1.681 1.681zm0-13.445c0 .924-.757 1.681-1.681 1.681-.925 0-1.68-.757-1.68-1.681s.756-1.68 1.68-1.68 1.681.756 1.681 1.68zm-8.403-1.68c.924 0 1.681.756 1.681 1.68s-.757 1.681-1.681 1.681c-.925 0-1.681-.757-1.681-1.681.001-.924.757-1.68 1.681-1.68zm-25.208 1.68c0-.924.756-1.68 1.68-1.68h16.806c.924 0 1.68.756 1.68 1.68s-.756 1.681-1.68 1.681h-16.806c-.924 0-1.68-.757-1.68-1.681zm0 6.722c0-.924.756-1.68 1.68-1.68h30.25c.924 0 1.681.757 1.681 1.68 0 .924-.757 1.681-1.681 1.681h-30.25c-.924 0-1.68-.757-1.68-1.681zm1.68 23.528h26.889c1.488 0 2.824-.652 3.747-1.68.802-.893 1.295-2.069 1.295-3.361 0-2.78-2.262-5.042-5.042-5.042h-26.889c-2.78 0-5.041 2.262-5.041 5.042 0 1.292.492 2.468 1.294 3.361.924 1.028 2.26 1.68 3.747 1.68zm0-6.722h26.889c.927 0 1.681.754 1.681 1.681s-.754 1.68-1.681 1.68h-26.889c-.926 0-1.68-.753-1.68-1.68s.754-1.681 1.68-1.681zm0-31.931c0-.928.752-1.68 1.681-1.68h5.041v-11.764c0-.929.753-1.681 1.681-1.681s1.681.752 1.681 1.681v11.764 1.68c0 .929-.753 1.681-1.681 1.681h-6.722c-.928 0-1.681-.752-1.681-1.681z" fill="#eb297c" fill-opacity="1" data-original-color="#000000ff" stroke="none" stroke-opacity="1"/></g></svg>