<svg id="Layer_1" viewBox="0 0 512 512" xmlns="http://www.w3.org/2000/svg" data-name="Layer 1" width="300" height="300" version="1.1" xmlns:xlink="http://www.w3.org/1999/xlink" xmlns:svgjs="http://svgjs.dev/svgjs"><g width="100%" height="100%" transform="matrix(1,0,0,1,0,0)"><path d="m389.145 35.419a149.247 149.247 0 0 0 -76.745 9.212 174.463 174.463 0 0 0 -56.4 36.886 174.463 174.463 0 0 0 -56.4-36.886 149.215 149.215 0 0 0 -76.746-9.212 144.645 144.645 0 0 0 -114.7 93.4c-22.313 60.918.9 130.078 69 205.557 53.378 59.163 123.156 109.767 172.292 141.8a12 12 0 0 0 13.108 0c49.136-32.034 118.914-82.638 172.292-141.8 68.1-75.479 91.314-144.639 69-205.557a144.648 144.648 0 0 0 -114.701-93.4zm-133.145 416.348c-87.547-57.946-268.979-195.467-225.311-314.694a120.662 120.662 0 0 1 95.683-77.913 122.027 122.027 0 0 1 17.9-1.32c37.481 0 74.178 17.28 102.83 48.975a12 12 0 0 0 17.8 0c33.206-36.732 77.209-54.1 120.726-47.655a120.663 120.663 0 0 1 95.683 77.913c43.668 119.227-137.764 256.748-225.311 314.694zm200.9-305.752c6.231 17.015 6.645 35.989 1.23 56.4a12 12 0 0 1 -23.2-6.156c4.128-15.558 3.937-29.684-.569-41.987a70.7 70.7 0 0 0 -56.061-45.652 12 12 0 1 1 3.518-23.741 94.681 94.681 0 0 1 75.082 61.136z" fill="#eb297c" fill-opacity="1" data-original-color="#000000ff" stroke="none" stroke-opacity="1"/></g></svg>